<svg id="Layer_1" data-name="Layer 1" xmlns="http://www.w3.org/2000/svg" xmlns:xlink="http://www.w3.org/1999/xlink" viewBox="0 0 6912 1728"><defs><style>.cls-1,.cls-3{fill:none;}.cls-2{fill:#5d8581;}.cls-3{stroke:#80c0b2;stroke-linecap:round;stroke-linejoin:round;stroke-width:37.8px;stroke-dasharray:2.48 100.81;}.cls-4{fill:#3f4c54;}.cls-5{clip-path:url(#clip-path);}.cls-6{fill:#80c0b2;}.cls-7{fill:#669d90;}.cls-8{fill:#496d70;}.cls-9{fill:#404c54;}.cls-10{clip-path:url(#clip-path-2);}</style><clipPath id="clip-path"><path class="cls-1" d="M0,1728H525a401.34,401.34,0,0,0-77.35-125.36l-19.37-19.37v0L0,1155Z"/></clipPath><clipPath id="clip-path-2"><rect class="cls-1" width="2953" height="1728"/></clipPath></defs><title>pancarte[14]2</title><path class="cls-2" d="M3165.4,1289.26h-45.59l-11.33,46.63h-34.54L3130,1130.42h27.36l56.36,205.47h-36.47Zm-38.13-29.73h32.05l-11.05-47.5-4.42-32.06h-1.11l-4.7,32.35Z"/><path class="cls-2" d="M3270.67,1190.17v87.14q0,17.2,3,23.9t11.06,6.7a16.61,16.61,0,0,0,13-6,34.74,34.74,0,0,0,7.46-14.43v-97.34h32.88v101.42q0,12,.83,23.46a132.79,132.79,0,0,0,3,20.84h-24.87l-5.8-19.82h-.83a48.36,48.36,0,0,1-14.23,16.91q-9,6.69-22.24,6.7a43.3,43.3,0,0,1-15.2-2.48,25.31,25.31,0,0,1-11.33-8.59q-4.7-6.12-7.18-16.76t-2.49-27v-94.72Z"/><path class="cls-2" d="M3492.55,1297.13a15.08,15.08,0,0,0-3.73-10.35,43.33,43.33,0,0,0-9.53-7.87q-5.8-3.63-12.3-7.43a65.74,65.74,0,0,1-12.29-9.32,45,45,0,0,1-9.54-13.41q-3.72-7.87-3.73-19.82,0-20.4,10.5-31.48t31-11.07a91.79,91.79,0,0,1,22.94,2.77q10.77,2.77,17.13,6.85l-7.74,26.81a104.58,104.58,0,0,0-12.71-4.52,51.81,51.81,0,0,0-14.64-2.18q-13.55,0-13.54,12a12.32,12.32,0,0,0,3.72,9.18,52.59,52.59,0,0,0,9.54,7.14q5.8,3.49,12.3,7.28a63.65,63.65,0,0,1,12.29,9.47,45.65,45.65,0,0,1,9.53,13.85q3.74,8.16,3.73,20.11,0,20.12-11.6,32.35t-34.54,12.24a86,86,0,0,1-22.25-2.91q-10.9-2.91-17.54-7.58l9.12-28a70.56,70.56,0,0,0,13.4,6.12,48.28,48.28,0,0,0,15.89,2.62,17.24,17.24,0,0,0,10.5-3.06Q3492.55,1303.83,3492.55,1297.13Z"/><path class="cls-2" d="M3650.05,1325.11q-6.91,6.41-18.79,10.49a76,76,0,0,1-24.87,4.08q-14.37,0-24.73-5.25a44.08,44.08,0,0,1-17-15.15,70.73,70.73,0,0,1-9.81-24,147.35,147.35,0,0,1-3.18-32.2q0-39.35,14.79-58.15t41-18.79a53.63,53.63,0,0,1,17.13,2.77,37.12,37.12,0,0,1,14.78,9.32q6.49,6.55,10.5,17.49t4,27.54q0,6.42-.7,13.7t-2.09,15.74h-67.67q.55,18.07,7.25,27.68t21.49,9.62a44.2,44.2,0,0,0,16.32-2.91,42.6,42.6,0,0,0,11.31-6.12Zm-43.34-109.3q-10.65,0-16,8.89t-6.17,24.92h38.69q.83-16.61-3.37-25.21T3606.71,1215.81Z"/><path class="cls-2" d="M3754,1224.56a33.39,33.39,0,0,0-12.16-2.63,19.72,19.72,0,0,0-12.85,4.38,21.86,21.86,0,0,0-7.32,12.24v97.34h-32.89V1190.17h25.15l3.87,17.48h1.1a33.83,33.83,0,0,1,10.36-15,24.4,24.4,0,0,1,15.62-5.39,30.89,30.89,0,0,1,13,2.92Z"/><path class="cls-2" d="M3825.51,1266.24l3.32,23h1.1l3-23.32,17.13-75.77h35.37l-46.42,147.18H3817L3768,1190.17h38.41Z"/><path class="cls-2" d="M3906.47,1149.07q0-8.74,5.25-14.42t14.92-5.69q9.66,0,15.47,5.54t5.81,14.57q0,9-5.81,14.28t-15.47,5.25q-9.67,0-14.92-5.39T3906.47,1149.07Zm3.87,41.1h32.88v145.72h-32.88Z"/><path class="cls-2" d="M4065.07,1328a45.72,45.72,0,0,1-16.58,8.75,66.81,66.81,0,0,1-19.34,2.91q-14.08,0-23.62-5.39a42.65,42.65,0,0,1-15.62-15.45,71.72,71.72,0,0,1-8.7-24.19,173.85,173.85,0,0,1-2.63-31.62q0-38.17,13-57.42t38.13-19.23q12.43,0,20.31,2.33a65.37,65.37,0,0,1,14,5.83l-7.74,28.85a50.16,50.16,0,0,0-9.53-3.93,39.63,39.63,0,0,0-10.92-1.31q-11.59,0-17.41,10.63t-5.8,34.25q0,19.82,5.94,32.35t18.93,12.53a32.31,32.31,0,0,0,11.74-1.89,42.51,42.51,0,0,0,9-4.81Z"/><path class="cls-2" d="M4183.89,1325.11q-6.92,6.41-18.79,10.49a76.12,76.12,0,0,1-24.87,4.08q-14.37,0-24.73-5.25a44.18,44.18,0,0,1-17-15.15,70.52,70.52,0,0,1-9.8-24,147.35,147.35,0,0,1-3.18-32.2q0-39.35,14.78-58.15t41-18.79a53.55,53.55,0,0,1,17.13,2.77,37.15,37.15,0,0,1,14.79,9.32q6.48,6.55,10.5,17.49t4,27.54q0,6.42-.69,13.7t-2.09,15.74h-67.68q.57,18.07,7.26,27.68T4146,1310a44.2,44.2,0,0,0,16.32-2.91,42.67,42.67,0,0,0,11.3-6.12Zm-43.35-109.3q-10.65,0-16,8.89t-6.16,24.92h38.68q.84-16.61-3.37-25.21T4140.54,1215.81Z"/><path class="cls-2" d="M4392.22,1284.6q0,12.24.28,24.48a255.14,255.14,0,0,0,2.21,27.1H4371.5l-4.42-16.9H4366q-9.39,20.4-32.88,20.4-21,0-33-17.49t-12-56.83q0-38.47,13-58.44t38.68-20a58.75,58.75,0,0,1,11.06.87,34.8,34.8,0,0,1,8.56,2.92v-58.87h32.88Zm-51.39,23.31q7.45,0,11.88-3.93t6.63-11.51v-68.79a16.72,16.72,0,0,0-6.21-3.79,29,29,0,0,0-9-1.16q-11,0-16.57,10.49t-5.53,37.31q0,20.1,4.56,30.74T4340.83,1307.91Z"/><path class="cls-2" d="M4523.2,1325.11q-6.91,6.41-18.79,10.49a76.12,76.12,0,0,1-24.87,4.08q-14.37,0-24.73-5.25a44.18,44.18,0,0,1-17-15.15,70.73,70.73,0,0,1-9.81-24,147.39,147.39,0,0,1-3.17-32.2q0-39.35,14.78-58.15t41-18.79a53.55,53.55,0,0,1,17.13,2.77,37.15,37.15,0,0,1,14.79,9.32q6.48,6.55,10.5,17.49t4,27.54q0,6.42-.69,13.7t-2.09,15.74H4456.6q.56,18.07,7.26,27.68t21.48,9.62a44.22,44.22,0,0,0,16.33-2.91,42.67,42.67,0,0,0,11.3-6.12Zm-43.35-109.3q-10.65,0-16,8.89t-6.16,24.92h38.68q.84-16.61-3.37-25.21T4479.85,1215.81Z"/><path class="cls-2" d="M4669.36,1266.24l3.32,23h1.1l3-23.32,17.14-75.77h35.36l-46.42,147.18h-22.1l-48.91-147.18h38.41Z"/><path class="cls-2" d="M4744.79,1263q0-38.76,14.37-57.71t40.07-18.94q27.63,0,41.17,19.23t13.54,57.42q0,39.06-14.37,57.85t-40.34,18.8Q4744.8,1339.68,4744.79,1263Zm34,0q0,21.85,4.7,33.81t15.75,12q10.5,0,15.61-10.35T4820,1263q0-22.44-4.7-34.1t-16-11.66q-9.67,0-15.06,10.35T4778.78,1263Z"/><path class="cls-2" d="M4875.77,1190.17H4891v-27.4l32.89-10.78v38.18h26.8v30.89h-26.8v63.54q0,12.53,2.34,17.78t8.43,5.24a29.44,29.44,0,0,0,7.46-.87,47.11,47.11,0,0,0,7.19-2.63l4.14,27.69a68.68,68.68,0,0,1-14.09,5.39,63.71,63.71,0,0,1-16.86,2.19q-15.75,0-23.62-9.62t-7.88-32.35v-76.36h-15.19Z"/><path class="cls-2" d="M5046,1224.56a33.3,33.3,0,0,0-12.15-2.63,19.72,19.72,0,0,0-12.85,4.38,21.92,21.92,0,0,0-7.33,12.24v97.34h-32.88V1190.17h25.15l3.87,17.48h1.1a33.75,33.75,0,0,1,10.36-15,24.38,24.38,0,0,1,15.62-5.39,30.89,30.89,0,0,1,13,2.92Z"/><path class="cls-2" d="M5168.94,1325.11q-6.91,6.41-18.79,10.49a76.12,76.12,0,0,1-24.87,4.08q-14.37,0-24.73-5.25a44.11,44.11,0,0,1-17-15.15,70.73,70.73,0,0,1-9.81-24,147.39,147.39,0,0,1-3.17-32.2q0-39.35,14.78-58.15t41-18.79a53.55,53.55,0,0,1,17.13,2.77,37.15,37.15,0,0,1,14.79,9.32q6.48,6.55,10.5,17.49t4,27.54q0,6.42-.7,13.7t-2.08,15.74h-67.68q.56,18.07,7.26,27.68t21.48,9.62a44.22,44.22,0,0,0,16.33-2.91,42.67,42.67,0,0,0,11.3-6.12Zm-43.35-109.3q-10.65,0-16,8.89t-6.16,24.92h38.68q.82-16.61-3.37-25.21T5125.59,1215.81Z"/><path class="cls-2" d="M5371.47,1325.11q-6.92,6.41-18.79,10.49a76,76,0,0,1-24.87,4.08q-14.37,0-24.73-5.25a44.08,44.08,0,0,1-17-15.15,70.53,70.53,0,0,1-9.81-24,147.35,147.35,0,0,1-3.18-32.2q0-39.35,14.78-58.15t41-18.79a53.63,53.63,0,0,1,17.13,2.77,37.12,37.12,0,0,1,14.78,9.32q6.49,6.55,10.5,17.49t4,27.54q0,6.42-.7,13.7t-2.09,15.74h-67.67q.55,18.07,7.25,27.68t21.49,9.62a44.2,44.2,0,0,0,16.32-2.91,42.76,42.76,0,0,0,11.31-6.12Zm-43.34-109.3q-10.65,0-16,8.89t-6.17,24.92h38.69q.83-16.61-3.37-25.21T5328.13,1215.81Z"/><path class="cls-2" d="M5478.4,1335.89v-88.6q0-16-3.59-22.44t-12.16-6.41a18.13,18.13,0,0,0-12.43,4.66,25.57,25.57,0,0,0-7.46,11.66v101.13h-32.88V1190.17h26.25l3.87,16.9h.82a46.08,46.08,0,0,1,13.54-14.43q8.56-6,22.39-6a39.19,39.19,0,0,1,14.78,2.62,25.23,25.23,0,0,1,10.91,8.6q4.43,6,6.64,16a118.69,118.69,0,0,1,2.21,24.92v97.05Z"/><path class="cls-2" d="M5537,1190.17h15.2v-27.4l32.88-10.78v38.18h26.8v30.89h-26.8v63.54q0,12.53,2.35,17.78t8.43,5.24a29.44,29.44,0,0,0,7.46-.87,46.64,46.64,0,0,0,7.18-2.63l4.15,27.69a69,69,0,0,1-14.1,5.39,63.64,63.64,0,0,1-16.85,2.19q-15.75,0-23.63-9.62t-7.87-32.35v-76.36H5537Z"/><path class="cls-2" d="M5707.19,1224.56a33.35,33.35,0,0,0-12.16-2.63,19.74,19.74,0,0,0-12.85,4.38,21.86,21.86,0,0,0-7.32,12.24v97.34H5642V1190.17h25.14l3.87,17.48h1.1a33.76,33.76,0,0,1,10.37-15,24.35,24.35,0,0,1,15.61-5.39,30.94,30.94,0,0,1,13,2.92Z"/><path class="cls-2" d="M5830.15,1325.11q-6.91,6.41-18.79,10.49a76,76,0,0,1-24.87,4.08q-14.37,0-24.73-5.25a44.08,44.08,0,0,1-17-15.15,70.53,70.53,0,0,1-9.81-24,147.35,147.35,0,0,1-3.18-32.2q0-39.35,14.78-58.15t41-18.79a53.63,53.63,0,0,1,17.13,2.77,37.19,37.19,0,0,1,14.78,9.32q6.49,6.55,10.5,17.49t4,27.54q0,6.42-.7,13.7t-2.09,15.74h-67.67q.55,18.07,7.25,27.68t21.49,9.62a44.2,44.2,0,0,0,16.32-2.91,42.76,42.76,0,0,0,11.31-6.12Zm-43.34-109.3q-10.67,0-16,8.89t-6.17,24.92h38.69q.82-16.61-3.38-25.21T5786.81,1215.81Z"/><path class="cls-2" d="M5868.83,1190.17h24.59l3.32,16.61h.83q6.35-10.5,14.23-15.3t19.48-4.81q21,0,31.64,16.76t10.64,55.81q0,39.06-13.27,59.89T5921.88,1340a48,48,0,0,1-11.33-1.16,30,30,0,0,1-8.84-3.79v59.16h-32.88Zm32.88,113.08a18.3,18.3,0,0,0,6.22,4.37,23.17,23.17,0,0,0,9,1.46q11.06,0,16.86-11.51t5.8-39.2q0-20.7-4.42-30.75t-14.65-10.06q-13.82,0-18.79,17.2Z"/><path class="cls-2" d="M6071.37,1224.56a33.35,33.35,0,0,0-12.16-2.63,19.76,19.76,0,0,0-12.85,4.38,21.91,21.91,0,0,0-7.32,12.24v97.34h-32.88V1190.17h25.14l3.87,17.48h1.11a33.67,33.67,0,0,1,10.36-15,24.35,24.35,0,0,1,15.61-5.39,30.94,30.94,0,0,1,13,2.92Z"/><path class="cls-2" d="M6099.83,1149.07q0-8.74,5.25-14.42T6120,1129q9.67,0,15.47,5.54t5.81,14.57q0,9-5.81,14.28T6120,1168.6q-9.67,0-14.92-5.39T6099.83,1149.07Zm3.87,41.1h32.88v145.72H6103.7Z"/><path class="cls-2" d="M6223.34,1297.13a15.08,15.08,0,0,0-3.73-10.35,43.33,43.33,0,0,0-9.53-7.87q-5.81-3.63-12.3-7.43a65.74,65.74,0,0,1-12.29-9.32,45,45,0,0,1-9.54-13.41q-3.72-7.87-3.73-19.82,0-20.4,10.5-31.48t30.95-11.07a91.79,91.79,0,0,1,22.94,2.77q10.77,2.77,17.13,6.85l-7.74,26.81a104.58,104.58,0,0,0-12.71-4.52,51.83,51.83,0,0,0-14.65-2.18q-13.53,0-13.53,12a12.32,12.32,0,0,0,3.72,9.18,52.59,52.59,0,0,0,9.54,7.14q5.8,3.49,12.29,7.28a63.41,63.41,0,0,1,12.3,9.47,45.65,45.65,0,0,1,9.53,13.85q3.73,8.16,3.73,20.11,0,20.12-11.6,32.35t-34.54,12.24a86,86,0,0,1-22.25-2.91q-10.9-2.91-17.54-7.58l9.12-28a70.56,70.56,0,0,0,13.4,6.12,48.28,48.28,0,0,0,15.89,2.62,17.24,17.24,0,0,0,10.5-3.06Q6223.34,1303.83,6223.34,1297.13Z"/><path class="cls-2" d="M6380.84,1325.11q-6.92,6.41-18.79,10.49a76,76,0,0,1-24.87,4.08q-14.37,0-24.73-5.25a44.08,44.08,0,0,1-17-15.15,70.53,70.53,0,0,1-9.81-24,147.35,147.35,0,0,1-3.18-32.2q0-39.35,14.78-58.15t41-18.79a53.63,53.63,0,0,1,17.13,2.77,37.12,37.12,0,0,1,14.78,9.32q6.49,6.55,10.5,17.49t4,27.54q0,6.42-.7,13.7t-2.09,15.74h-67.67q.56,18.07,7.25,27.68T6343,1310a44.2,44.2,0,0,0,16.32-2.91,42.76,42.76,0,0,0,11.31-6.12Zm-43.34-109.3q-10.65,0-16,8.89t-6.17,24.92H6354q.82-16.61-3.37-25.21T6337.5,1215.81Z"/><line class="cls-3" x1="6390.33" y1="1470.47" x2="3054.73" y2="1470.47"/><path class="cls-4" d="M1453.21,679.5q0-20.81-12.36-35.46a161.72,161.72,0,0,0-30.9-27.65q-18.54-13-40.34-26.67a237,237,0,0,1-40.34-31.88,159.42,159.42,0,0,1-30.9-43q-12.37-24.7-12.37-60.5,0-33.18,10.09-56.28t27.65-37.74q17.57-14.64,41.64-21.47a187.61,187.61,0,0,1,51.4-6.83,278.5,278.5,0,0,1,61.81,6.51q28.62,6.51,47.49,17.56l-25.37,72.22q-11.07-7.8-32.86-14.31a164.47,164.47,0,0,0-47.17-6.51q-25.37,0-39,10.41T1368,448.53a47.22,47.22,0,0,0,12.36,32.21,175.24,175.24,0,0,0,30.91,27q18.54,13,40.34,27a242.09,242.09,0,0,1,40.34,32.53,163.31,163.31,0,0,1,30.9,43.59q12.36,25,12.36,59.53t-10.08,59.86q-10.09,25.38-28.63,42t-44.57,25q-26,8.46-57.9,8.46-40.35,0-70.6-7.8t-46.51-17.57l26.67-73.52q13,7.8,35.78,15.61a149.33,149.33,0,0,0,48.8,7.81Q1453.21,730.25,1453.21,679.5Z"/><path class="cls-4" d="M1798,772.54q-16.27,14.33-44.24,23.42a188.07,188.07,0,0,1-58.56,9.11q-33.84,0-58.23-11.71a102.52,102.52,0,0,1-40-33.83q-15.62-22.11-23.1-53.68T1566.42,634q0-87.84,34.81-129.8t96.62-42a133.13,133.13,0,0,1,40.33,6.18A88.55,88.55,0,0,1,1773,489.19q15.29,14.64,24.73,39t9.43,61.49a303.86,303.86,0,0,1-1.65,30.58q-1.63,16.26-4.91,35.13H1641.24q1.32,40.35,17.08,61.81t50.6,21.47a108.94,108.94,0,0,0,38.43-6.51q17.42-6.5,26.62-13.66ZM1696,528.56q-25.08,0-37.62,19.84T1643.84,604h91.09q2-37.08-7.94-56.28T1696,528.56Zm-.74-200.39h77.43v19.51l-61.16,80.68h-43.59Z"/><path class="cls-4" d="M1856.59,341.18H1934V492.12h2q23.41-28.62,67-28.62,46.2,0,71.9,38.38t25.7,123.62q0,92.4-36.44,135.66t-99.54,43.26q-34.5,0-63.44-6.5t-44.57-14.32ZM1934,726.35q13.67,7.17,35.78,7.15,24.72,0,37.74-23.74t13-79.71q0-49.42-10.41-72.54t-32.53-23.1q-32.53,0-43.59,33.84Z"/><path class="cls-4" d="M2145.47,490.82Q2165,479.11,2194.26,472t66.37-7.15q55.29,0,77.1,28.62t21.79,81.33q0,30.59-1.63,60.18t-2.27,57.91q-.66,28.3,1,54.65a214.36,214.36,0,0,0,8.79,49.77h-63.11l-12.37-39.68h-2.6A87.56,87.56,0,0,1,2258,788.81q-18.87,12.35-47.49,12.36-38.4,0-60.51-25.7t-22.12-68.64q0-58.56,41.64-83.28t112.56-20.82q3.24-37.72-4.88-54.65t-34.81-16.92a189,189,0,0,0-40.34,4.55,149.14,149.14,0,0,0-37.09,13Zm93,244q17.58,0,28.63-8.79t16.27-19.19v-54a127.5,127.5,0,0,0-28.63-.65A78.56,78.56,0,0,0,2230.7,658a38.72,38.72,0,0,0-16.59,13.34q-6.2,8.77-6.18,22.45,0,20.17,8.13,30.58T2238.5,734.81Z"/><path class="cls-4" d="M2522.82,710.08q0-13.67-8.78-23.1a101.56,101.56,0,0,0-22.45-17.56q-13.66-8.13-29-16.59A154.77,154.77,0,0,1,2433.69,632a100.51,100.51,0,0,1-22.45-29.93q-8.77-17.57-8.78-44.24,0-45.54,24.72-70.27t72.87-24.73a227.58,227.58,0,0,1,54,6.19q25.38,6.18,40.34,15.28l-18.22,59.86a253,253,0,0,0-29.92-10.08,128.29,128.29,0,0,0-34.49-4.88q-31.87,0-31.88,26.67a26.73,26.73,0,0,0,8.79,20.5,122,122,0,0,0,22.44,15.94q13.66,7.8,28.95,16.26a148,148,0,0,1,29,21.15,102.25,102.25,0,0,1,22.44,30.9q8.79,18.23,8.79,44.9,0,44.9-27.33,72.22t-81.33,27.32a212.84,212.84,0,0,1-52.37-6.5q-25.71-6.5-41.32-16.92l21.47-62.46a169.55,169.55,0,0,0,31.56,13.66,119.3,119.3,0,0,0,37.41,5.86q15,0,24.72-6.83T2522.82,710.08Z"/><path class="cls-4" d="M2615.86,471.3h35.78V410.14l77.43-24.07V471.3h63.11v69h-63.11V682.1q0,28,5.53,39.69t19.84,11.71a72.67,72.67,0,0,0,17.57-2,113.3,113.3,0,0,0,16.91-5.85l9.76,61.81a168.48,168.48,0,0,1-33.18,12,157.69,157.69,0,0,1-39.69,4.88q-37.08,0-55.63-21.47t-18.54-72.22V540.27h-35.78Z"/><path class="cls-4" d="M2828,379.56q0-19.51,12.36-32.2t35.14-12.69q22.76,0,36.43,12.36t13.66,32.53q0,20.18-13.66,31.89t-36.43,11.71q-22.78,0-35.14-12T2828,379.56Zm9.11,91.74h77.42V796.61h-77.42Z"/><path class="cls-4" d="M3196.85,772.54q-16.28,14.33-44.24,23.42a188.11,188.11,0,0,1-58.56,9.11q-33.84,0-58.23-11.71a102.45,102.45,0,0,1-40-33.83q-15.61-22.11-23.1-53.68T2965.23,634q0-87.84,34.8-129.8t96.62-42a133.15,133.15,0,0,1,40.34,6.18,88.7,88.7,0,0,1,34.81,20.82q15.28,14.64,24.72,39t9.44,61.49a303.86,303.86,0,0,1-1.65,30.58q-1.65,16.26-4.91,35.13H3040.05q1.3,40.35,17.08,61.81t50.59,21.47a109,109,0,0,0,38.44-6.51q17.41-6.5,26.61-13.66Zm-102.06-244q-25.08,0-37.62,19.84T3042.65,604h91.09q2-37.08-7.94-56.28T3094.79,528.56Z"/><path class="cls-4" d="M3416.75,796.61V598.82q0-35.76-8.45-50.09t-28.63-14.32a44,44,0,0,0-29.28,10.41,56.92,56.92,0,0,0-17.57,26V796.61H3255.4V471.3h61.81l9.11,37.74h1.95a105,105,0,0,1,31.88-32.21q20.16-13.32,52.7-13.33,19.52,0,34.81,5.85a58.89,58.89,0,0,1,25.7,19.19q10.39,13.35,15.61,35.79t5.21,55.63V796.61Z"/><path class="cls-4" d="M3924.23,796.61h-242V341.18h82v380h160.06Z"/><path class="cls-4" d="M3957.4,490.82q19.53-11.71,48.8-18.87t66.37-7.15q55.29,0,77.09,28.62t21.8,81.33q0,30.59-1.63,60.18t-2.27,57.91q-.66,28.3,1,54.65a214.36,214.36,0,0,0,8.79,49.77h-63.11l-12.37-39.68h-2.6A87.56,87.56,0,0,1,4070,788.81q-18.87,12.35-47.49,12.36-38.4,0-60.51-25.7t-22.12-68.64q0-58.56,41.64-83.28T4094,602.73q3.24-37.72-4.88-54.65t-34.81-16.92a188.94,188.94,0,0,0-40.34,4.55,149.14,149.14,0,0,0-37.09,13Zm93,244q17.58,0,28.63-8.79t16.27-19.19v-54a127.51,127.51,0,0,0-28.63-.65,78.56,78.56,0,0,0-24.07,5.85,38.72,38.72,0,0,0-16.59,13.34q-6.2,8.77-6.19,22.45,0,20.17,8.14,30.58T4050.44,734.81Z"/><path class="cls-4" d="M4225.46,471.3h57.9l7.81,37.09h1.95q15-23.43,33.51-34.16t45.87-10.73q49.44,0,74.5,37.41t25,124.59q0,87.19-31.23,133.7t-90.43,46.52a118.4,118.4,0,0,1-26.68-2.6,72.45,72.45,0,0,1-20.82-8.46V926.74h-77.42Zm77.42,252.44a42.88,42.88,0,0,0,14.64,9.76q8.13,3.27,21.15,3.26,26,0,39.68-25.7T4392,623.55q0-46.18-10.41-68.64t-34.48-22.45q-32.55,0-44.25,38.39Z"/><path class="cls-4" d="M4504.57,634q0-86.52,33.83-128.83t94.34-42.29q65.06,0,96.95,43T4761.57,634q0,87.19-33.84,129.15t-95,42Q4504.57,805.07,4504.57,634Zm80,0q0,48.79,11.06,75.47t37.08,26.68q24.72,0,36.76-23.1t12-79q0-50.1-11.06-76.12t-37.74-26q-22.78,0-35.46,23.1T4584.6,634Z"/><path class="cls-4" d="M4803.2,379.56q0-19.51,12.36-32.2t35.14-12.69q22.76,0,36.43,12.36t13.66,32.53q0,20.18-13.66,31.89t-36.43,11.71q-22.78,0-35.14-12T4803.2,379.56Zm9.11,91.74h77.42V796.61h-77.42Z"/><path class="cls-4" d="M5113.54,796.61V598.82q0-35.76-8.46-50.09t-28.62-14.32a44,44,0,0,0-29.28,10.41,56.85,56.85,0,0,0-17.57,26V796.61h-77.42V471.3H5014l9.11,37.74h2a105,105,0,0,1,31.88-32.21q20.16-13.32,52.7-13.33,19.51,0,34.81,5.85a59,59,0,0,1,25.7,19.19q10.4,13.35,15.61,35.79T5191,580V796.61Z"/><path class="cls-4" d="M5218.94,471.3h35.78V410.14l77.42-24.07V471.3h63.12v69h-63.12V682.1q0,28,5.53,39.69t19.85,11.71a72.67,72.67,0,0,0,17.57-2A113.3,113.3,0,0,0,5392,725.7l9.76,61.81a168.48,168.48,0,0,1-33.18,12,157.69,157.69,0,0,1-39.69,4.88q-37.08,0-55.63-21.47t-18.54-72.22V540.27h-35.78Z"/><path class="cls-4" d="M5653.54,772.54q-16.26,14.33-44.24,23.42a188,188,0,0,1-58.55,9.11q-33.84,0-58.24-11.71a102.52,102.52,0,0,1-40-33.83q-15.61-22.11-23.1-53.68T5421.92,634q0-87.84,34.81-129.8t96.62-42a133.24,133.24,0,0,1,40.34,6.18,88.7,88.7,0,0,1,34.81,20.82q15.27,14.64,24.72,39t9.43,61.49q0,14.31-1.64,30.58t-4.91,35.13H5496.74q1.32,40.35,17.08,61.81t50.6,21.47a109,109,0,0,0,38.44-6.51q17.42-6.5,26.61-13.66Zm-102.05-244q-25.09,0-37.63,19.84T5499.35,604h91.08q1.95-37.08-7.94-56.28T5551.49,528.56Z"/><path class="cls-4" d="M1517.72,1453q-14.71,12.36-37.09,17.66a204,204,0,0,1-47.11,5.3q-31.21,0-57.7-11.78t-45.63-37.39q-19.14-25.6-29.74-66.24t-10.6-97.74q0-58.87,12.07-99.51t32.09-66q20-25.3,46.23-36.51a136,136,0,0,1,53.87-11.18q28.26,0,46.81,4.12a178.06,178.06,0,0,1,32.09,10l-10.6,40a103.8,103.8,0,0,0-27.67-10,169.07,169.07,0,0,0-36.51-3.53,85.74,85.74,0,0,0-38.86,9.12q-18.25,9.14-32.38,29.44t-22.38,53.29q-8.25,33-8.24,80.67,0,86,29.44,129.24t78.31,43.28q20,0,35.92-5.59a116.47,116.47,0,0,0,27.09-13.25Z"/><path class="cls-4" d="M1571.89,1060.79a213.39,213.39,0,0,1,40-7.06q21.19-1.77,41.81-1.77a206.4,206.4,0,0,1,46.51,5.3,107.56,107.56,0,0,1,41.51,19.43q18.56,14.13,30,38.86t11.48,63q0,37.1-10.89,63t-28.85,42.1a110.57,110.57,0,0,1-41.22,23.55,157.72,157.72,0,0,1-48,7.36h-7.65c-3.53,0-7.27-.09-11.19-.29s-7.75-.49-11.48-.88a65.26,65.26,0,0,1-8-1.18v156.62h-44.16Zm84.2,31.8q-11.79,0-22.67.88a99.79,99.79,0,0,0-17.37,2.65v175.47a19.74,19.74,0,0,0,7.36,1.47q5,.3,10.31.59t10.3.3h7.36a121.38,121.38,0,0,0,31.8-4.13,63.65,63.65,0,0,0,27.08-15q11.77-10.89,19.14-29.44t7.36-46.81q0-24.74-6.77-41.22t-17.67-26.5a62.08,62.08,0,0,0-25.61-14.13A113.37,113.37,0,0,0,1656.09,1092.59Z"/><path class="cls-4" d="M1964.74,1353.44H1848.53l-32.87,115.4h-43.57l124.24-418.64h24.14l124.24,418.64H1998.2Zm-104.47-38.28h93.9l-35.79-128L1907.52,1125h-1.21l-11.41,63.4Z"/><path class="cls-4" d="M2187.79,1084.94q0-14.13,7.95-23t20.9-8.83q12.95,0,21.49,8.54t8.54,23.26q0,14.13-8.54,22.08t-21.49,8q-13,0-20.9-8.25T2187.79,1084.94Zm7.65,89.5h42.4v294.4h-42.4Z"/><path class="cls-4" d="M2466.89,1468.84V1289.25q0-44.16-10.31-63.88t-36.8-19.73q-23.55,0-38.86,14.14a83.07,83.07,0,0,0-22.38,34.73v214.33h-42.39v-294.4h30.62l7.65,31.2h1.77q11.17-15.9,30.32-27.08t45.64-11.19q18.82,0,33.26,5.3a52.94,52.94,0,0,1,24.14,18q9.72,12.66,14.73,33.86t5,53.58v190.77Z"/><path class="cls-4" d="M2737.15,1454.12a99.38,99.38,0,0,1-33.56,16.49,145.24,145.24,0,0,1-39.45,5.3q-28.28,0-47.7-10.89a84.25,84.25,0,0,1-31.5-31.21q-12.08-20.31-17.66-48.87t-5.6-63.3q0-75.36,26.79-114.82t76.84-39.45q23,0,39.45,4.12a118.78,118.78,0,0,1,28.27,10.6l-11.78,37.1a101,101,0,0,0-51.23-13.55q-31.79,0-48,28t-16.2,88a275.32,275.32,0,0,0,3.54,45.34q3.52,21.19,11.77,36.8a68.81,68.81,0,0,0,21.2,24.73q12.95,9.13,32.38,9.13a76.23,76.23,0,0,0,28.56-5.3q13.24-5.31,21.49-12.37Z"/><path class="cls-4" d="M2772.49,1442.35q0-16.49,8-24.73t21.49-8.25q13.53,0,21.49,8.25t7.95,24.73q0,17.09-7.95,25.32t-21.49,8.24q-13.56,0-21.49-8.24T2772.49,1442.35Z"/><g class="cls-5"><polygon class="cls-6" points="1187.31 3003.89 -1293.72 522.89 -1375.98 605.15 1105.05 3086.18 1187.31 3003.89"/><polygon class="cls-7" points="1297.66 2893.64 -1183.43 412.62 -1293.72 522.89 1187.31 3003.89 1297.66 2893.64"/><polygon class="cls-2" points="1407.99 2783.37 -1073.17 302.36 -1183.43 412.62 1297.66 2893.64 1407.99 2783.37"/><polygon class="cls-8" points="1518.24 2673.12 -962.92 192.08 -1073.17 302.36 1407.99 2783.37 1518.24 2673.12"/><polygon class="cls-8" points="1106.89 3087.69 -1374.14 606.65 -1484.4 716.92 996.64 3197.95 1106.89 3087.69"/></g><polygon class="cls-6" points="1345.54 0 123.82 1221.66 206.09 1303.92 1510.08 0 1345.54 0"/><polygon class="cls-7" points="1125.01 0 13.56 1111.38 123.82 1221.66 1345.54 0 1125.01 0"/><polygon class="cls-2" points="904.47 0 0 904.42 0 1097.82 13.57 1111.38 1125.01 0 904.47 0"/><polygon class="cls-8" points="683.91 0 0 683.88 0 904.42 904.47 0 683.91 0"/><polygon class="cls-9" points="0 0 0 636.48 640.38 0 0 0"/><g class="cls-10"><path class="cls-9" d="M551.77,1872.38c0,221.76-179.77,401.53-401.55,401.53s-401.53-179.77-401.53-401.53,179.78-401.54,401.53-401.54,401.55,179.77,401.55,401.54"/></g><polygon class="cls-9" points="6404.28 1728 6912 1728 6912 1220.29 6404.28 1728"/></svg>